<svg xmlns="http://www.w3.org/2000/svg" viewBox="0 0 64 64">
  <defs>
    <linearGradient id="g" x1="0" y1="0" x2="1" y2="1">
      <stop offset="0%" stop-color="#4f46e5"/>
      <stop offset="100%" stop-color="#7c3aed"/>
    </linearGradient>
  </defs>
  <rect x="4" y="4" width="56" height="56" rx="16" fill="url(#g)"/>
  <path d="M36 17c-6.9 0-12.5 4.9-12.5 11 0 3.8 2.2 7.2 5.7 9.2V45l7.1-5.3h-.3c6.9 0 12.5-4.9 12.5-11s-5.6-11-12.5-11Zm-3.8 12.3a2 2 0 1 1 0-4 2 2 0 0 1 0 4Zm7.6 0a2 2 0 1 1 0-4 2 2 0 0 1 0 4Z" fill="#fff"/>
</svg>
